<svg width="49" height="69" viewBox="0 0 49 69" fill="none" xmlns="http://www.w3.org/2000/svg">
    <path d="M5.5 1L4.5 3.5H3L1 8.5L3.5 9L10 68H39.5L46 8.5H48L46.5 3.5H44.5L43.5 1H5.5Z" fill="#00584D"
        stroke="#00584D" />
    <path d="M12.6999 64.5L6.56007 10.5H42.4399L36.3001 64.5H12.6999Z" fill="#fff" stroke="#fff" />
    <path d="M39 15H10L11.5 28H37.5L39 15Z" fill="#00584D" />
    <path d="M37.5 31.5H12L13.5 44H36L37.5 31.5Z" fill="#00584D" />
    <path d="M36 47.5H13.5L15 60.5H34.5L36 47.5Z" fill="#00584D" />
    <path d="M39 15H10L11.5 28H37.5L39 15Z" stroke="#00584D" />
    <path d="M37.5 31.5H12L13.5 44H36L37.5 31.5Z" stroke="#00584D" />
    <path d="M36 47.5H13.5L15 60.5H34.5L36 47.5Z" stroke="#00584D" />
</svg>